<svg xmlns="http://www.w3.org/2000/svg" xmlns:xlink="http://www.w3.org/1999/xlink" width="500" zoomAndPan="magnify" viewBox="0 0 375 374.999991" height="500" preserveAspectRatio="xMidYMid meet" version="1.0"><defs><g/><clipPath id="514ed3124f"><path d="M 78.492188 167.746094 L 296.507812 167.746094 L 296.507812 207.886719 L 78.492188 207.886719 Z M 78.492188 167.746094 " clip-rule="nonzero"/></clipPath></defs><rect x="-37.5" width="450" fill="#ffffff" y="-37.499999" height="449.999989" fill-opacity="1"/><rect x="-37.5" width="450" fill="#ffffff" y="-37.499999" height="449.999989" fill-opacity="1"/><rect x="-37.5" width="450" fill="#ffffff" y="-37.499999" height="449.999989" fill-opacity="1"/><g fill="#000000" fill-opacity="1"><g transform="translate(144.345845, 307.198795)"><g><path d="M 36.65625 -240.90625 L 49.640625 -240.90625 L 49.640625 0 L 36.65625 0 Z M 36.65625 -240.90625 "/></g></g></g><g clip-path="url(#514ed3124f)"><path fill="#ffffff" d="M 78.492188 167.746094 L 297.265625 167.746094 L 297.265625 208.929688 L 78.492188 208.929688 Z M 78.492188 167.746094 " fill-opacity="1" fill-rule="nonzero"/></g><g fill="#000000" fill-opacity="1"><g transform="translate(96.102936, 197.150648)"><g><path d="M 2.625 -19.890625 L 5.171875 -19.890625 L 5.171875 0 L 2.625 0 Z M 2.625 -19.890625 "/></g></g></g><g fill="#000000" fill-opacity="1"><g transform="translate(108.014616, 197.150648)"><g><path d="M 15.578125 -19.890625 L 18.125 -19.890625 L 18.125 0 L 15.84375 0 L 5.171875 -15.6875 L 5.171875 0 L 2.625 0 L 2.625 -19.890625 L 5.0625 -19.890625 L 15.578125 -4.4375 Z M 15.578125 -19.890625 "/></g></g></g><g fill="#000000" fill-opacity="1"><g transform="translate(132.881268, 197.150648)"><g><path d="M 17.6875 -19.890625 L 10.640625 0 L 7.5625 0 L 0.640625 -19.890625 L 3.15625 -19.890625 L 9.109375 -2.90625 L 15.1875 -19.890625 Z M 17.6875 -19.890625 "/></g></g></g><g fill="#000000" fill-opacity="1"><g transform="translate(155.327462, 197.150648)"><g><path d="M 2.625 0 L 2.625 -19.890625 L 15.171875 -19.890625 L 15.15625 -17.65625 L 5.1875 -17.65625 L 5.1875 -11.15625 L 14.171875 -11.15625 L 14.171875 -8.921875 L 5.171875 -8.921875 L 5.171875 -2.296875 L 15.4375 -2.265625 L 15.4375 0 Z M 2.625 0 "/></g></g></g><g fill="#000000" fill-opacity="1"><g transform="translate(176.522159, 197.150648)"><g><path d="M 15.578125 -19.890625 L 18.125 -19.890625 L 18.125 0 L 15.84375 0 L 5.171875 -15.6875 L 5.171875 0 L 2.625 0 L 2.625 -19.890625 L 5.0625 -19.890625 L 15.578125 -4.4375 Z M 15.578125 -19.890625 "/></g></g></g><g fill="#000000" fill-opacity="1"><g transform="translate(201.388809, 197.150648)"><g><path d="M 9.375 0.28125 C 8.445312 0.28125 7.539062 0.164062 6.65625 -0.0625 C 5.78125 -0.300781 4.984375 -0.65625 4.265625 -1.125 C 3.546875 -1.59375 2.953125 -2.171875 2.484375 -2.859375 C 2.015625 -3.554688 1.71875 -4.363281 1.59375 -5.28125 L 4.265625 -5.28125 C 4.429688 -4.53125 4.757812 -3.894531 5.25 -3.375 C 5.738281 -2.863281 6.335938 -2.476562 7.046875 -2.21875 C 7.753906 -1.96875 8.53125 -1.84375 9.375 -1.84375 C 10.300781 -1.84375 11.132812 -1.972656 11.875 -2.234375 C 12.613281 -2.492188 13.195312 -2.867188 13.625 -3.359375 C 14.050781 -3.847656 14.265625 -4.429688 14.265625 -5.109375 C 14.265625 -5.703125 14.128906 -6.21875 13.859375 -6.65625 C 13.585938 -7.09375 13.195312 -7.457031 12.6875 -7.75 C 12.175781 -8.050781 11.550781 -8.285156 10.8125 -8.453125 L 6.90625 -9.359375 C 5.4375 -9.679688 4.285156 -10.253906 3.453125 -11.078125 C 2.628906 -11.898438 2.207031 -12.988281 2.1875 -14.34375 C 2.1875 -15.488281 2.488281 -16.5 3.09375 -17.375 C 3.707031 -18.25 4.546875 -18.925781 5.609375 -19.40625 C 6.679688 -19.894531 7.90625 -20.140625 9.28125 -20.140625 C 10.875 -20.140625 12.207031 -19.867188 13.28125 -19.328125 C 14.363281 -18.785156 15.179688 -18.070312 15.734375 -17.1875 C 16.285156 -16.3125 16.566406 -15.375 16.578125 -14.375 L 13.953125 -14.375 C 13.867188 -15.269531 13.601562 -15.984375 13.15625 -16.515625 C 12.707031 -17.046875 12.148438 -17.421875 11.484375 -17.640625 C 10.816406 -17.867188 10.085938 -17.984375 9.296875 -17.984375 C 8.734375 -17.984375 8.1875 -17.910156 7.65625 -17.765625 C 7.125 -17.628906 6.648438 -17.414062 6.234375 -17.125 C 5.816406 -16.84375 5.484375 -16.488281 5.234375 -16.0625 C 4.992188 -15.644531 4.875 -15.15625 4.875 -14.59375 C 4.875 -13.882812 5.117188 -13.300781 5.609375 -12.84375 C 6.097656 -12.394531 6.988281 -12.007812 8.28125 -11.6875 L 12.0625 -10.78125 C 13.050781 -10.570312 13.859375 -10.257812 14.484375 -9.84375 C 15.117188 -9.4375 15.609375 -8.96875 15.953125 -8.4375 C 16.296875 -7.914062 16.53125 -7.367188 16.65625 -6.796875 C 16.789062 -6.234375 16.859375 -5.675781 16.859375 -5.125 C 16.859375 -4.125 16.5625 -3.210938 15.96875 -2.390625 C 15.375 -1.578125 14.519531 -0.925781 13.40625 -0.4375 C 12.289062 0.0390625 10.945312 0.28125 9.375 0.28125 Z M 9.375 0.28125 "/></g></g></g><g fill="#000000" fill-opacity="1"><g transform="translate(224.041288, 197.150648)"><g><path d="M 2.625 -19.890625 L 5.171875 -19.890625 L 5.171875 0 L 2.625 0 Z M 2.625 -19.890625 "/></g></g></g><g fill="#000000" fill-opacity="1"><g transform="translate(235.952966, 197.150648)"><g><path d="M 10.125 0.28125 C 8.351562 0.28125 6.820312 -0.117188 5.53125 -0.921875 C 4.238281 -1.722656 3.238281 -2.878906 2.53125 -4.390625 C 1.832031 -5.910156 1.484375 -7.75 1.484375 -9.90625 C 1.484375 -12.082031 1.835938 -13.929688 2.546875 -15.453125 C 3.253906 -16.984375 4.253906 -18.148438 5.546875 -18.953125 C 6.847656 -19.765625 8.375 -20.171875 10.125 -20.171875 C 11.882812 -20.171875 13.40625 -19.769531 14.6875 -18.96875 C 15.976562 -18.164062 16.96875 -17 17.65625 -15.46875 C 18.351562 -13.945312 18.703125 -12.09375 18.703125 -9.90625 C 18.703125 -7.75 18.359375 -5.910156 17.671875 -4.390625 C 16.984375 -2.878906 15.992188 -1.722656 14.703125 -0.921875 C 13.421875 -0.117188 11.894531 0.28125 10.125 0.28125 Z M 10.125 -1.9375 C 11.351562 -1.9375 12.398438 -2.21875 13.265625 -2.78125 C 14.128906 -3.34375 14.785156 -4.207031 15.234375 -5.375 C 15.691406 -6.550781 15.921875 -8.050781 15.921875 -9.875 C 15.921875 -11.726562 15.691406 -13.25 15.234375 -14.4375 C 14.773438 -15.632812 14.113281 -16.519531 13.25 -17.09375 C 12.382812 -17.664062 11.34375 -17.953125 10.125 -17.953125 C 8.914062 -17.953125 7.875 -17.660156 7 -17.078125 C 6.132812 -16.503906 5.46875 -15.617188 5 -14.421875 C 4.53125 -13.234375 4.296875 -11.71875 4.296875 -9.875 C 4.296875 -8.050781 4.53125 -6.550781 5 -5.375 C 5.46875 -4.207031 6.132812 -3.34375 7 -2.78125 C 7.875 -2.21875 8.914062 -1.9375 10.125 -1.9375 Z M 10.125 -1.9375 "/></g></g></g><g fill="#000000" fill-opacity="1"><g transform="translate(260.269525, 197.150648)"><g><path d="M 16.859375 0 L 14.15625 0 L 10.53125 -8.578125 L 5.171875 -8.578125 L 5.171875 0 L 2.625 0 L 2.625 -19.890625 L 10.328125 -19.890625 C 11.765625 -19.890625 12.960938 -19.671875 13.921875 -19.234375 C 14.890625 -18.804688 15.609375 -18.1875 16.078125 -17.375 C 16.554688 -16.5625 16.796875 -15.585938 16.796875 -14.453125 C 16.796875 -13.378906 16.601562 -12.484375 16.21875 -11.765625 C 15.84375 -11.046875 15.359375 -10.46875 14.765625 -10.03125 C 14.179688 -9.59375 13.578125 -9.257812 12.953125 -9.03125 Z M 9.5 -10.671875 C 11 -10.671875 12.15625 -10.972656 12.96875 -11.578125 C 13.789062 -12.191406 14.203125 -13.101562 14.203125 -14.3125 C 14.203125 -15.476562 13.835938 -16.351562 13.109375 -16.9375 C 12.378906 -17.519531 11.378906 -17.8125 10.109375 -17.8125 L 5.171875 -17.8125 L 5.171875 -10.671875 Z M 9.5 -10.671875 "/></g></g></g><path stroke-linecap="butt" transform="matrix(0.74915, 0, 0, 0.75, 99.647664, 64.24843)" fill="none" stroke-linejoin="miter" d="M 0.00103203 2.002093 L 234.271893 2.002093 " stroke="#000000" stroke-width="4" stroke-opacity="1" stroke-miterlimit="4"/><path stroke-linecap="butt" transform="matrix(0.74915, 0, 0, 0.75, 99.647664, 307.35124)" fill="none" stroke-linejoin="miter" d="M 0.00103203 2.00043 L 234.271893 2.00043 " stroke="#000000" stroke-width="4" stroke-opacity="1" stroke-miterlimit="4"/></svg>